<svg width="28" height="22" viewBox="0 0 28 22" fill="none" xmlns="http://www.w3.org/2000/svg">
<path d="M13.9205 0.0526123C6.24425 0.0526123 0 4.77482 0 10.5789C0 16.383 6.24425 21.1052 13.9205 21.1052C21.5967 21.1052 27.8409 16.383 27.8409 10.5789C27.8409 4.77482 21.5967 0.0526123 13.9205 0.0526123ZM13.9205 20.2281C6.88432 20.2281 1.16002 15.8995 1.16002 10.5789C1.16002 5.25837 6.88432 0.929792 13.9205 0.929792C20.9566 0.929792 26.6809 5.25837 26.6809 10.5789C26.6809 15.8995 20.9566 20.2281 13.9205 20.2281Z" fill="#FEFEFE"/>
<path d="M19.4545 10.2101L11.3343 6.26277C11.1564 6.17499 10.9264 6.17026 10.7429 6.24649C10.556 6.32359 10.4404 6.47096 10.4404 6.63156V14.5263C10.4404 14.6869 10.556 14.8343 10.7429 14.9114C10.829 14.9469 10.9253 14.9649 11.0205 14.9649C11.1292 14.9649 11.2391 14.9418 11.3343 14.8951L19.4545 10.9477C19.6199 10.8672 19.7208 10.728 19.7208 10.5789C19.7208 10.4299 19.6199 10.2907 19.4545 10.2101ZM11.6004 13.7228V7.4351L18.0679 10.5789L11.6004 13.7228Z" fill="#FEFEFE"/>
</svg>
