<svg width="68" height="32" viewBox="0 0 68 32" fill="none" xmlns="http://www.w3.org/2000/svg">
<path d="M29 8.9989H32.9995V10.999H29V8.9989Z" fill="#332208"/>
<g filter="url(#filter0_d)">
<path d="M63.1418 6.00937L56.349 5.03941C55.1104 4.27858 53.825 3.59749 52.4997 2.99981C48.1231 1.01758 43.373 -0.00526887 38.5679 2.04093e-05H37.3878C31.7173 0.00408898 26.1374 1.42689 21.157 4.13862L17.7288 6.00856C13.716 6.05372 9.78043 7.12092 6.29411 9.10803C4.87728 9.92053 4.00244 11.428 4 13.0607V18.998C4 19.5505 4.44759 19.9981 5.00016 19.9981H8.35791C9.45003 23.1134 12.8611 24.7539 15.9767 23.6619C17.6918 23.061 19.0399 21.7126 19.6409 19.9981H46.358C47.4501 23.1134 50.8612 24.7539 53.9768 23.6619C55.6915 23.061 57.0399 21.7126 57.6409 19.9981H57.9998C58.1272 19.9981 58.2533 19.9741 58.3717 19.9269L61.6107 18.6274C63.0576 18.0545 64.0053 16.6541 64 15.0987V6.99927C64 6.50208 63.6342 6.08016 63.1418 6.00937ZM17.9189 18.7983C17.4766 20.9624 15.3635 22.3583 13.1992 21.916C11.0345 21.4738 9.63843 19.361 10.0807 17.1964C10.5234 15.0323 12.6365 13.6364 14.8008 14.0787C16.6632 14.4591 18.0002 16.0975 17.9998 17.9984C17.9998 18.2669 17.9726 18.535 17.9189 18.7983ZM35.9999 17.9984H19.9998C19.9998 14.6849 17.3138 11.9988 14 11.9988C10.6862 11.9988 7.99984 14.6849 7.99984 17.9984H5.99992V13.0607C6.00114 12.1448 6.49186 11.299 7.28695 10.8441C10.5503 8.98109 14.2425 8.00055 17.9998 7.99933H35.9999V17.9984ZM35.9999 5.99961H21.922L22.1148 5.89423C26.3901 3.57105 31.1391 2.25404 35.9999 2.04369V5.99961ZM37.9998 1.99975H38.5658C42.5958 1.99527 46.5891 2.76017 50.3322 4.25376L48.5862 5.99961H37.9998V1.99975ZM55.9189 18.7983C55.4766 20.9624 53.3636 22.3583 51.1989 21.916C49.0346 21.4738 47.6385 19.361 48.0808 17.1964C48.5231 15.0323 50.6365 13.6364 52.8008 14.0787C54.6632 14.4591 56.0003 16.0975 55.9999 17.9984C55.9999 18.2669 55.9726 18.535 55.9189 18.7983ZM62.0001 8.99899H59V10.9991H62.0001V15.0987C62.0025 15.8355 61.5533 16.4987 60.8681 16.7692L57.9998 17.9211C57.9998 17.8291 57.988 17.738 57.9819 17.646C57.9758 17.5541 57.9738 17.4463 57.964 17.3462C57.9538 17.2461 57.9339 17.146 57.918 17.0463C57.9018 16.9462 57.89 16.8461 57.87 16.7554C57.8501 16.6643 57.8208 16.5634 57.7947 16.4682C57.7687 16.3734 57.7488 16.2773 57.7187 16.1842C57.6889 16.0914 57.6527 16.0023 57.619 15.9112C57.5848 15.8204 57.5539 15.7265 57.5189 15.6361C57.4839 15.5462 57.4367 15.4644 57.3948 15.3794C57.3528 15.2944 57.3118 15.2012 57.265 15.1153C57.2178 15.0295 57.1649 14.9563 57.1197 14.8765C57.0749 14.7964 57.02 14.7052 56.963 14.6235C56.9057 14.5413 56.8528 14.4766 56.7978 14.4025C56.7429 14.3285 56.6806 14.2414 56.6168 14.1645C56.5529 14.0876 56.4931 14.0274 56.4308 13.9643C56.369 13.9017 56.2998 13.8166 56.231 13.7467C56.1618 13.6767 56.0939 13.6214 56.0251 13.5595C55.956 13.4977 55.8819 13.4244 55.8058 13.3593C55.7301 13.2946 55.6528 13.2446 55.5771 13.1876C55.501 13.1307 55.425 13.0696 55.3452 13.0163C55.265 12.9635 55.1751 12.9167 55.0893 12.8605C55.003 12.8044 54.933 12.7604 54.852 12.7177C54.7711 12.6746 54.6702 12.6294 54.5782 12.5855C54.4862 12.5415 54.4142 12.5025 54.3292 12.4667C54.2441 12.4305 54.129 12.3926 54.0293 12.3568C53.9292 12.3206 53.8641 12.2925 53.779 12.2657C53.6651 12.2307 53.5483 12.2055 53.432 12.1766C53.3559 12.1587 53.283 12.1347 53.2061 12.1188C53.0832 12.0936 52.9571 12.0798 52.8322 12.0614C52.7581 12.0517 52.6873 12.0354 52.6133 12.0285C52.4131 12.0086 52.2133 11.9976 52.0033 11.9976C48.6907 12.0008 46.0064 14.6849 46.0032 17.9972H38.0002V7.99893H49C49.2653 7.99893 49.5196 7.89355 49.7068 7.70599L52.3 5.11305C53.3884 5.63099 54.4468 6.20995 55.4701 6.8471C55.5881 6.92074 55.72 6.96916 55.8579 6.98909L62.0001 7.86588V8.99899Z" fill="#332208"/>
<path d="M56.1757 5.51973L56.0873 5.46545C54.8668 4.71572 53.6001 4.04457 52.2942 3.45561L52.2935 3.45528C47.9818 1.50248 43.3022 0.494809 38.5684 0.50002L38.5679 0.500021L37.388 0.50002C31.8011 0.504057 26.3035 1.90586 21.3964 4.57757L56.1757 5.51973ZM56.1757 5.51973L56.2783 5.53439L63.0707 6.50428C63.3171 6.53972 63.5 6.75096 63.5 6.99927L63.5 15.0987L63.5 15.1004C63.5046 16.4502 62.6822 17.6654 61.4266 18.1625L61.4245 18.1633L58.1866 19.4624C58.1865 19.4625 58.1864 19.4625 58.1863 19.4626C58.1274 19.486 58.0642 19.4981 57.9998 19.4981H57.6409H57.2864L57.1691 19.8327C56.6184 21.4038 55.3827 22.6394 53.8114 23.19L53.9726 23.6499L53.8114 23.19C50.9564 24.1907 47.8306 22.6874 46.8298 19.8327L46.7125 19.4981H46.358H19.6409H19.2863L19.169 19.8327C18.6183 21.4038 17.383 22.6394 15.8114 23.19L15.8113 23.19C12.9563 24.1907 9.83053 22.6874 8.82976 19.8327L8.71246 19.4981H8.35791H5.00016C4.72369 19.4981 4.5 19.2744 4.5 18.998V13.0611C4.5023 11.6076 5.28102 10.2657 6.54226 9.5421C9.95472 7.59722 13.8068 6.55273 17.7345 6.50853L17.859 6.50712L17.9683 6.4475L21.3961 4.57775L56.1757 5.51973ZM18.4088 18.8982L18.4087 18.8984C17.9111 21.333 15.5339 22.9035 13.0991 22.4059C10.6639 21.9084 9.09325 19.5315 9.59085 17.0963L9.59087 17.0962C10.0889 14.6617 12.466 13.0912 14.9009 13.5888C16.9961 14.0168 18.5002 15.86 18.4998 17.9984L18.4088 18.8982ZM18.4088 18.8982C18.4691 18.6024 18.4998 18.3008 18.4998 17.9985L18.4088 18.8982ZM56.4088 18.8982L56.4088 18.8984C55.9112 21.3331 53.534 22.9034 51.0988 22.4059L51.1882 21.9681L51.0988 22.4059C48.6639 21.9084 47.0933 19.5314 47.5909 17.0963C48.0885 14.6616 50.4662 13.0913 52.901 13.5888C54.9961 14.0168 56.5003 15.86 56.4999 17.9984L56.4088 18.8982ZM56.4088 18.8982C56.4692 18.6024 56.4999 18.3008 56.4999 17.9985L56.4088 18.8982ZM62.5001 9.49899H62.0001H59.5V10.4991H62.0001H62.5001V10.9991L62.5001 15.097C62.5001 15.0974 62.5001 15.0978 62.5001 15.0983V15.0987H62.0001L62.5001 9.49899ZM62.5001 9.49899V8.99899V7.86588V7.43219L62.0707 7.3709L55.9294 6.49424C55.9294 6.49423 55.9293 6.49422 55.9292 6.49421M62.5001 9.49899L55.9292 6.49421M57.4244 17.1262C57.4312 17.1687 57.4373 17.2042 57.4427 17.2357C57.4531 17.2965 57.461 17.3426 57.4665 17.396C57.4717 17.45 57.4735 17.4915 57.4757 17.5412C57.4774 17.5793 57.4792 17.6221 57.483 17.6791C57.4868 17.7357 57.4903 17.7746 57.4932 17.806C57.4972 17.8499 57.4998 17.8791 57.4998 17.9211V18.6607L58.1861 18.3851L61.0517 17.2343C61.0521 17.2341 61.0525 17.234 61.0529 17.2338L57.918 17.0463M57.4244 17.1262C57.4244 17.1257 57.4243 17.1253 57.4243 17.1249L57.918 17.0463M57.4244 17.1262C57.4245 17.1263 57.4245 17.1264 57.4245 17.1266L57.918 17.0463M57.4244 17.1262C57.4163 17.0758 57.4105 17.0362 57.4055 17.0024C57.3975 16.9479 57.3917 16.9082 57.3817 16.8627L57.3816 16.8623C57.3689 16.8042 57.3518 16.7423 57.3309 16.6672C57.3251 16.6459 57.3189 16.6237 57.3125 16.6001M57.918 17.0463C57.9128 17.0143 57.9081 16.9823 57.9034 16.9506C57.8934 16.8832 57.8836 16.8171 57.87 16.7554C57.8541 16.6826 57.8322 16.6036 57.8107 16.5262C57.8054 16.5067 57.8 16.4873 57.7947 16.4682M57.3125 16.6001C57.3125 16.6003 57.3126 16.6004 57.3126 16.6006L57.7947 16.4682M57.3125 16.6001C57.2952 16.5372 57.2849 16.4951 57.2765 16.4604C57.2659 16.4171 57.2581 16.3851 57.2429 16.3379L57.2425 16.3367C57.2256 16.284 57.2083 16.2386 57.1864 16.1812C57.1757 16.1531 57.1639 16.122 57.1505 16.0858M57.3125 16.6001L57.7947 16.4682M57.7947 16.4682C57.7851 16.433 57.7763 16.3977 57.7675 16.3625C57.7525 16.3026 57.7376 16.2428 57.7187 16.1842L56.4308 13.9643L56.075 14.3156C56.1391 14.3805 56.1841 14.4261 56.2322 14.484C56.2731 14.5332 56.3121 14.5862 56.357 14.6473C56.3696 14.6643 56.3826 14.682 56.3963 14.7004C56.4273 14.7423 56.4503 14.7721 56.4705 14.7982C56.4986 14.8348 56.5213 14.8642 56.5531 14.9097C56.5978 14.9739 56.6438 15.0499 56.6831 15.1203L56.6846 15.1229C56.7122 15.1716 56.7414 15.2176 56.7634 15.2522L56.7695 15.2617C56.794 15.3003 56.8112 15.3279 56.8263 15.3552C56.8511 15.4009 56.8694 15.4396 56.8923 15.4881C56.9073 15.5199 56.9242 15.5558 56.9463 15.6004C56.9704 15.6494 56.9882 15.6835 57.0024 15.7108C57.0244 15.7529 57.0379 15.7788 57.0529 15.8175C57.0675 15.8551 57.0817 15.8948 57.098 15.9408C57.1136 15.9845 57.1315 16.0354 57.1505 16.0858M54.0293 12.3568C53.9922 12.3434 53.9599 12.3311 53.9296 12.3196C53.8782 12.3 53.8326 12.2826 53.779 12.2657C53.6952 12.24 53.6099 12.2195 53.5243 12.199C53.4936 12.1916 53.4627 12.1842 53.4319 12.1766C53.3992 12.1689 53.367 12.16 53.3349 12.1512C53.2924 12.1395 53.2499 12.1278 53.2061 12.1188M54.0293 12.3568L55.8579 6.98909C55.72 6.96916 55.5881 6.92074 55.4701 6.8471C54.4468 6.20995 53.3884 5.63099 52.3 5.11305L49.7068 7.70599C49.5196 7.89355 49.2653 7.99893 49 7.99893H38.5002H38.0002V8.49893V17.4972V17.9972H38.5002H46.0022H46.0032C46.0064 14.6849 48.6907 12.0008 52.0033 11.9976C52.2133 11.9976 52.4131 12.0085 52.6133 12.0285C52.6565 12.0325 52.6986 12.0398 52.7409 12.047C52.7711 12.0522 52.8014 12.0574 52.8322 12.0614C52.8674 12.0666 52.9027 12.0714 52.9379 12.0762C53.0279 12.0884 53.1179 12.1007 53.2061 12.1188M54.0293 12.3568C54.0567 12.3667 54.0852 12.3767 54.114 12.3867C54.19 12.4133 54.2675 12.4404 54.3292 12.4667C54.3853 12.4903 54.4357 12.5153 54.4899 12.5423C54.5179 12.5561 54.5469 12.5705 54.5782 12.5855C54.6048 12.5982 54.6321 12.611 54.6595 12.6238C54.7268 12.6554 54.7945 12.6871 54.852 12.7177M54.0293 12.3568L54.852 12.7177M53.2061 12.1188L53.1056 12.6086C53.0345 12.594 52.9691 12.5851 52.8875 12.574C52.8501 12.569 52.8093 12.5634 52.763 12.5566C52.7153 12.5502 52.6679 12.5417 52.639 12.5368C52.6043 12.5309 52.5838 12.5279 52.5668 12.5263L52.5637 12.526C52.3786 12.5076 52.1954 12.4976 52.0033 12.4976C48.9667 12.5008 46.5061 14.9613 46.5032 17.9976L46.5027 18.4972H46.0032H38.0002H37.5002V17.9972V7.99893V7.49893H38.0002H49C49.1327 7.49893 49.2596 7.4462 49.3529 7.3528L49.3532 7.35241L51.9464 4.75948L52.196 4.50989L52.5148 4.66156C53.6202 5.18758 54.6951 5.77558 55.7344 6.42264L55.7348 6.42292C55.7943 6.46002 55.8603 6.48422 55.9292 6.49421M53.2061 12.1188L53.1051 12.6085C53.1266 12.6129 53.1508 12.6192 53.1873 12.6292L53.2011 12.633C53.2318 12.6414 53.2727 12.6527 53.3143 12.6626C53.3537 12.6723 53.389 12.6808 53.4217 12.6886C53.5001 12.7074 53.5632 12.7225 53.6303 12.7431C53.6716 12.7561 53.6967 12.7658 53.7342 12.7802C53.7636 12.7916 53.8007 12.8059 53.8592 12.827L53.8603 12.8274C53.8994 12.8414 53.9346 12.8537 53.9666 12.8649C54.0342 12.8886 54.0875 12.9072 54.1333 12.9267L54.1352 12.9275C54.1782 12.9456 54.2077 12.9603 54.2502 12.9815C54.2789 12.9959 54.3137 13.0132 54.3626 13.0366C54.3987 13.0539 54.4312 13.0691 54.4609 13.083C54.5217 13.1114 54.5711 13.1346 54.617 13.159L54.6187 13.1599C54.6786 13.1915 54.7329 13.2252 54.8156 13.279C54.8159 13.2792 54.8162 13.2794 54.8165 13.2796L55.0893 12.8605M55.9292 6.49421L55.0687 13.433M55.0893 12.8605C55.132 12.8885 55.1758 12.9141 55.2189 12.9394C55.2623 12.9648 55.305 12.9898 55.3452 13.0163C55.4027 13.0548 55.4583 13.0972 55.5134 13.1393C55.5347 13.1556 55.5559 13.1718 55.5771 13.1876M55.0893 12.8605C55.003 12.8044 54.933 12.7604 54.852 12.7177M55.0893 12.8605L54.852 12.7177M55.5771 13.1876L55.2765 13.5871C55.2766 13.5873 55.2768 13.5874 55.277 13.5875M55.5771 13.1876C55.6027 13.2069 55.6285 13.2254 55.6544 13.2439C55.7049 13.2801 55.7557 13.3165 55.8058 13.3593L55.277 13.5875M55.5771 13.1876L55.2775 13.5879C55.2773 13.5878 55.2771 13.5877 55.277 13.5875M55.277 13.5875C55.2465 13.5647 55.2206 13.5449 55.1973 13.5271C55.1491 13.4903 55.112 13.462 55.0687 13.433M55.0687 13.433C55.0691 13.4332 55.0695 13.4334 55.0698 13.4337L55.3451 13.0166L55.0674 13.4321C55.0678 13.4324 55.0683 13.4327 55.0687 13.433ZM57.1505 16.0858C57.1503 16.0855 57.1502 16.0852 57.1501 16.0849L57.619 15.9112L57.1511 16.0874C57.1509 16.0869 57.1507 16.0864 57.1505 16.0858ZM35.9999 18.4984H36.4999V17.9984V7.99933V7.49933H35.9999H17.9998H17.9997C14.1554 7.50058 10.3778 8.5038 7.03905 10.4099L7.03866 10.4101C6.08793 10.954 5.50138 11.9653 5.49992 13.06V13.0607V17.9984V18.4984H5.99992H7.99984H8.49984V17.9984C8.49984 14.9611 10.9623 12.4988 14 12.4988C17.0377 12.4988 19.4998 14.961 19.4998 17.9984V18.4984H19.9998H35.9999ZM35.9999 6.49961H36.4999V5.99961V2.04369V1.52158L35.9783 1.54416C31.0414 1.75779 26.2182 3.0954 21.8761 5.4549L21.8751 5.45545L21.6822 5.56083L21.922 6.49961H35.9999ZM37.9998 1.49975H37.4998V1.99975V5.99961V6.49961H37.9998H48.5862H48.7933L48.9397 6.35318L50.6857 4.60733L51.2224 4.07066L50.5175 3.78937C46.7154 2.27222 42.6591 1.49524 38.5656 1.49975H37.9998Z" stroke="black"/>
</g>
<defs>
<filter id="filter0_d" x="0" y="0" width="68" height="32" filterUnits="userSpaceOnUse" color-interpolation-filters="sRGB">
<feFlood flood-opacity="0" result="BackgroundImageFix"/>
<feColorMatrix in="SourceAlpha" type="matrix" values="0 0 0 0 0 0 0 0 0 0 0 0 0 0 0 0 0 0 127 0"/>
<feOffset dy="4"/>
<feGaussianBlur stdDeviation="2"/>
<feColorMatrix type="matrix" values="0 0 0 0 0 0 0 0 0 0 0 0 0 0 0 0 0 0 0.25 0"/>
<feBlend mode="normal" in2="BackgroundImageFix" result="effect1_dropShadow"/>
<feBlend mode="normal" in="SourceGraphic" in2="effect1_dropShadow" result="shape"/>
</filter>
</defs>
</svg>
