<svg width="60" height="72" viewBox="0 0 60 72" fill="none" xmlns="http://www.w3.org/2000/svg">
<path d="M38.4543 63.2214H5.5759C3.47063 63.2214 1.75781 60.6181 1.75781 57.4181V17.4376C1.75781 14.2376 3.47063 11.6343 5.5759 11.6343C6.06129 11.6343 6.4548 11.0361 6.4548 10.2983C6.4548 9.56037 6.06129 8.9624 5.5759 8.9624C2.50137 8.9624 0 12.7643 0 17.4376V57.4181C0 62.0914 2.50137 65.8933 5.5759 65.8933H38.4543C38.9396 65.8933 39.3332 65.2953 39.3332 64.5573C39.3332 63.8197 38.9396 63.2214 38.4543 63.2214Z" fill="#C5AC2D"/>
<path d="M54.424 8.9624H25.3027C24.8173 8.9624 24.4238 9.56037 24.4238 10.2983C24.4238 11.0361 24.8173 11.6343 25.3027 11.6343H54.424C56.5292 11.6343 58.242 14.2376 58.242 17.4376V57.4181C58.242 60.6181 56.5292 63.2214 54.424 63.2214H53.4846C52.9992 63.2214 52.6057 63.8195 52.6057 64.5573C52.6057 65.2953 52.9992 65.8933 53.4846 65.8933H54.424C57.4985 65.8933 59.9999 62.0914 59.9999 57.4181V17.4376C59.9999 12.7643 57.4985 8.9624 54.424 8.9624V8.9624Z" fill="#C5AC2D"/>
<path d="M9.3335 11.6343C11.9567 11.6343 14.091 14.8781 14.091 18.8656C14.091 19.6034 14.4845 20.2015 14.9699 20.2015C15.4553 20.2015 15.8488 19.6034 15.8488 18.8656C15.8488 14.8783 17.983 11.6343 20.6062 11.6343C21.0916 11.6343 21.4851 11.0361 21.4851 10.2983C21.4851 9.56035 21.0916 8.96239 20.6062 8.96239C17.983 8.96239 15.8488 5.71838 15.8488 1.73105C15.8488 0.993255 15.4553 0.395111 14.9699 0.395111C14.4845 0.395111 14.091 0.993255 14.091 1.73105C14.091 5.71838 11.9569 8.96239 9.3335 8.96239C8.84811 8.96239 8.45459 9.56035 8.45459 10.2983C8.45459 11.0361 8.84811 11.6343 9.3335 11.6343V11.6343ZM14.9699 6.6945C15.5404 8.18576 16.3597 9.43104 17.3408 10.2983C16.3597 11.1654 15.5404 12.4109 14.9699 13.902C14.3993 12.4109 13.58 11.1654 12.599 10.2983C13.5799 9.43104 14.3993 8.18576 14.9699 6.6945V6.6945Z" fill="#C5AC2D"/>
<path d="M49.727 63.2214C48.1397 63.2214 46.8484 61.2585 46.8484 58.8459C46.8484 58.1082 46.4549 57.51 45.9695 57.51C45.4841 57.51 45.0906 58.1082 45.0906 58.8459C45.0906 61.2586 43.7992 63.2214 42.2119 63.2214C41.7265 63.2214 41.333 63.8196 41.333 64.5573C41.333 65.2953 41.7265 65.8933 42.2119 65.8933C43.7992 65.8933 45.0906 67.8562 45.0906 70.2689C45.0906 71.0067 45.4841 71.6049 45.9695 71.6049C46.4549 71.6049 46.8484 71.0067 46.8484 70.2689C46.8484 67.8562 48.1398 65.8933 49.727 65.8933C50.2124 65.8933 50.6059 65.2953 50.6059 64.5573C50.6059 63.8197 50.2124 63.2214 49.727 63.2214ZM45.9694 66.1446C45.679 65.5351 45.3262 64.9987 44.9252 64.5573C45.3261 64.116 45.679 63.5796 45.9694 62.9703C46.2598 63.5796 46.6127 64.1161 47.0137 64.5573C46.6127 64.9987 46.2598 65.5353 45.9694 66.1446Z" fill="#C5AC2D"/>
<path d="M13.2759 24.6689C12.7905 24.6689 12.397 25.2671 12.397 26.0049V48.8316C12.397 49.4823 12.7054 50.0382 13.1273 50.1483C13.1883 50.1641 13.2767 50.1873 14.907 50.1873C15.6983 50.1873 16.8531 50.1818 18.544 50.1675C19.0294 50.1634 19.4207 49.5619 19.418 48.8241C19.4153 48.0888 19.0224 47.4956 18.5392 47.4956C18.5376 47.4956 18.5358 47.4956 18.5342 47.4956C17.2014 47.5069 15.2498 47.5183 14.1549 47.5142V26.0049C14.1548 25.2671 13.7613 24.6689 13.2759 24.6689V24.6689Z" fill="#C5AC2D"/>
<path d="M37.2863 49.9429C37.4402 50.1077 37.6168 50.1869 37.7918 50.1869C38.068 50.1869 38.3399 49.9896 38.5111 49.6203L43.4622 38.9373L48.4062 49.6194C48.5773 49.9892 48.8494 50.1869 49.1258 50.1869C49.3005 50.1869 49.477 50.1078 49.6308 49.9434C50.0278 49.519 50.1232 48.6855 49.8439 48.0822L44.5377 36.617L49.0996 26.7742C49.3791 26.1711 49.284 25.3376 48.8872 24.9126C48.4904 24.4876 47.9421 24.6322 47.6625 25.2354L43.4633 34.2955L39.2705 25.2361C38.9911 24.6324 38.4429 24.4876 38.0458 24.9121C37.6488 25.3365 37.5534 26.17 37.8327 26.7733L42.3879 36.6158L37.074 48.0813C36.7945 48.6846 36.8896 49.5181 37.2863 49.9429V49.9429Z" fill="#C5AC2D"/>
<path d="M24.7423 48.7723C25.7062 49.7085 26.7971 50.1843 27.9847 50.1868H27.9946C29.0264 50.1868 29.9918 49.8481 30.8641 49.1805C33.0336 47.5197 34.1803 44.9362 34.1803 41.7089V26.0049C34.1803 25.2671 33.7868 24.6689 33.3014 24.6689C32.816 24.6689 32.4225 25.2671 32.4225 26.0049V41.7089C32.4225 43.9207 31.6541 45.5842 30.0735 46.7942C29.4485 47.2726 28.7491 47.5151 27.9943 47.5149C27.9919 47.5149 27.9894 47.5149 27.987 47.5149C27.1393 47.5131 26.366 47.1786 25.6886 46.5206C24.3202 45.1918 23.7363 43.7575 23.7363 41.7253V26.0049C23.7363 25.2671 23.3428 24.6689 22.8574 24.6689C22.372 24.6689 21.9785 25.2671 21.9785 26.0049V41.7253C21.9786 44.6613 22.8826 46.9663 24.7423 48.7723V48.7723Z" fill="#C5AC2D"/>
</svg>
